<svg version="1" xmlns="http://www.w3.org/2000/svg" width="160" height="160" viewBox="0 0 120.000000 120.000000"><path d="M49 5c-1.9.6-4.2 1.4-5 1.8-.8.5-9.5.8-19.4.7-11.8 0-18.3.3-19.4 1.1-1.3.9-1.5 5.7-1.5 36.4 0 39.5-.3 38.1 7.1 37.5 5.2-.4 6.2.3 6.2 3.9 0 3.9-1.2 5.8-3.2 5.1-.8-.3-2.1.1-2.8 1-.7.8-.9 1.5-.4 1.5s-.2.6-1.6 1.3c-1.4.7-2.4 2.1-2.4 3 .1.9-.2 1.7-.6 1.7-1.5 0-1.8 2.8-.5 5.3.7 1.4 1.1 2.8.8 3-1 1.1-1.1 6.7-.1 7.3.8.5 93.1.9 104.4.5 1.6-.1 2.3-1.2 3.4-5.3.9-3.8 1-5.3.1-5.6-.6-.2-1.1-1.1-1.1-1.9 0-1.9-4.4-6.1-7.6-7.4-2.2-.8-2.4-1.5-2.4-6.9 0-3.3.3-6 .8-6.1.4-.1 2.9-.2 5.5-.4 2.7-.2 5.4-.8 6-1.4 1.5-1.5 1.3-70.9-.2-72.4-.8-.8-7.5-1.2-20.5-1.2-14.3-.1-19.8-.5-21-1.4C71.6 4.5 53.8 3.7 49 5z"/></svg>